<mxfile host="Electron" agent="Mozilla/5.0 (Windows NT 10.0; Win64; x64) AppleWebKit/537.36 (KHTML, like Gecko) draw.io/27.0.9 Chrome/134.0.6998.205 Electron/35.4.0 Safari/537.36" version="27.0.9">
  <diagram name="Page-1" id="dEE_buu1ZP95vDLcONvx">
    <mxGraphModel dx="6853" dy="4073" grid="1" gridSize="10" guides="1" tooltips="1" connect="1" arrows="1" fold="1" page="1" pageScale="1" pageWidth="850" pageHeight="1100" math="0" shadow="0">
      <root>
        <mxCell id="0" />
        <mxCell id="1" parent="0" />
        <mxCell id="j2aahznA7ONagbp8tVYw-43" value="" style="shape=partialRectangle;whiteSpace=wrap;html=1;left=0;right=0;fillColor=none;" parent="1" vertex="1">
          <mxGeometry x="680" y="470" width="120" height="60" as="geometry" />
        </mxCell>
        <mxCell id="j2aahznA7ONagbp8tVYw-17" value="" style="edgeStyle=orthogonalEdgeStyle;rounded=0;orthogonalLoop=1;jettySize=auto;html=1;" parent="1" source="j2aahznA7ONagbp8tVYw-1" edge="1">
          <mxGeometry relative="1" as="geometry">
            <mxPoint x="460.0000000000009" y="730" as="targetPoint" />
          </mxGeometry>
        </mxCell>
        <mxCell id="j2aahznA7ONagbp8tVYw-1" value="" style="ellipse;whiteSpace=wrap;html=1;aspect=fixed;" parent="1" vertex="1">
          <mxGeometry x="370" y="410" width="180" height="180" as="geometry" />
        </mxCell>
        <mxCell id="j2aahznA7ONagbp8tVYw-38" style="edgeStyle=orthogonalEdgeStyle;rounded=0;orthogonalLoop=1;jettySize=auto;html=1;exitX=0;exitY=0.5;exitDx=0;exitDy=0;entryX=1;entryY=0.5;entryDx=0;entryDy=0;" parent="1" source="j2aahznA7ONagbp8tVYw-43" target="j2aahznA7ONagbp8tVYw-1" edge="1">
          <mxGeometry relative="1" as="geometry">
            <mxPoint x="660" y="500" as="sourcePoint" />
          </mxGeometry>
        </mxCell>
        <mxCell id="j2aahznA7ONagbp8tVYw-10" style="edgeStyle=orthogonalEdgeStyle;rounded=0;orthogonalLoop=1;jettySize=auto;html=1;exitX=1;exitY=0.5;exitDx=0;exitDy=0;entryX=0.072;entryY=0.221;entryDx=0;entryDy=0;entryPerimeter=0;" parent="1" source="j2aahznA7ONagbp8tVYw-7" target="j2aahznA7ONagbp8tVYw-1" edge="1">
          <mxGeometry relative="1" as="geometry">
            <Array as="points">
              <mxPoint x="220" y="450" />
            </Array>
          </mxGeometry>
        </mxCell>
        <mxCell id="j2aahznA7ONagbp8tVYw-29" style="edgeStyle=orthogonalEdgeStyle;rounded=0;orthogonalLoop=1;jettySize=auto;html=1;exitX=0.5;exitY=0;exitDx=0;exitDy=0;" parent="1" source="j2aahznA7ONagbp8tVYw-7" target="j2aahznA7ONagbp8tVYw-12" edge="1">
          <mxGeometry relative="1" as="geometry">
            <mxPoint x="510" y="360" as="targetPoint" />
            <Array as="points">
              <mxPoint x="160" y="220" />
              <mxPoint x="490" y="220" />
            </Array>
          </mxGeometry>
        </mxCell>
        <mxCell id="j2aahznA7ONagbp8tVYw-46" style="edgeStyle=orthogonalEdgeStyle;rounded=0;orthogonalLoop=1;jettySize=auto;html=1;exitX=0.75;exitY=0;exitDx=0;exitDy=0;entryX=0.5;entryY=0;entryDx=0;entryDy=0;" parent="1" source="j2aahznA7ONagbp8tVYw-7" target="j2aahznA7ONagbp8tVYw-1" edge="1">
          <mxGeometry relative="1" as="geometry">
            <Array as="points">
              <mxPoint x="190" y="350" />
              <mxPoint x="460" y="350" />
            </Array>
          </mxGeometry>
        </mxCell>
        <mxCell id="j2aahznA7ONagbp8tVYw-52" style="edgeStyle=orthogonalEdgeStyle;rounded=0;orthogonalLoop=1;jettySize=auto;html=1;exitX=0.75;exitY=1;exitDx=0;exitDy=0;" parent="1" source="j2aahznA7ONagbp8tVYw-7" target="j2aahznA7ONagbp8tVYw-1" edge="1">
          <mxGeometry relative="1" as="geometry">
            <Array as="points">
              <mxPoint x="190" y="550" />
            </Array>
          </mxGeometry>
        </mxCell>
        <mxCell id="j2aahznA7ONagbp8tVYw-55" style="edgeStyle=orthogonalEdgeStyle;rounded=0;orthogonalLoop=1;jettySize=auto;html=1;exitX=0.5;exitY=1;exitDx=0;exitDy=0;" parent="1" source="j2aahznA7ONagbp8tVYw-7" target="j2aahznA7ONagbp8tVYw-1" edge="1">
          <mxGeometry relative="1" as="geometry">
            <mxPoint x="240" y="620" as="targetPoint" />
            <Array as="points">
              <mxPoint x="160" y="580" />
            </Array>
          </mxGeometry>
        </mxCell>
        <mxCell id="j2aahznA7ONagbp8tVYw-7" value="" style="whiteSpace=wrap;html=1;" parent="1" vertex="1">
          <mxGeometry x="100" y="470" width="120" height="60" as="geometry" />
        </mxCell>
        <mxCell id="j2aahznA7ONagbp8tVYw-11" value="Anggota" style="text;html=1;align=center;verticalAlign=middle;whiteSpace=wrap;rounded=0;" parent="1" vertex="1">
          <mxGeometry x="130" y="485" width="60" height="30" as="geometry" />
        </mxCell>
        <mxCell id="j2aahznA7ONagbp8tVYw-34" style="edgeStyle=orthogonalEdgeStyle;rounded=0;orthogonalLoop=1;jettySize=auto;html=1;exitX=0.25;exitY=0;exitDx=0;exitDy=0;entryX=0.91;entryY=0.007;entryDx=0;entryDy=0;entryPerimeter=0;" parent="1" source="j2aahznA7ONagbp8tVYw-12" target="j2aahznA7ONagbp8tVYw-7" edge="1">
          <mxGeometry relative="1" as="geometry" />
        </mxCell>
        <mxCell id="j2aahznA7ONagbp8tVYw-45" style="edgeStyle=orthogonalEdgeStyle;rounded=0;orthogonalLoop=1;jettySize=auto;html=1;exitX=0.75;exitY=0;exitDx=0;exitDy=0;entryX=0.5;entryY=0;entryDx=0;entryDy=0;" parent="1" source="j2aahznA7ONagbp8tVYw-12" target="j2aahznA7ONagbp8tVYw-43" edge="1">
          <mxGeometry relative="1" as="geometry" />
        </mxCell>
        <mxCell id="j2aahznA7ONagbp8tVYw-64" style="edgeStyle=orthogonalEdgeStyle;rounded=0;orthogonalLoop=1;jettySize=auto;html=1;exitX=0.75;exitY=1;exitDx=0;exitDy=0;entryX=0.5;entryY=1;entryDx=0;entryDy=0;" parent="1" source="j2aahznA7ONagbp8tVYw-12" target="j2aahznA7ONagbp8tVYw-43" edge="1">
          <mxGeometry relative="1" as="geometry" />
        </mxCell>
        <mxCell id="j2aahznA7ONagbp8tVYw-12" value="&lt;font style=&quot;font-size: 16px;&quot;&gt;Sistem Informasi Perpustakaan&lt;/font&gt;" style="text;html=1;align=center;verticalAlign=middle;whiteSpace=wrap;rounded=0;" parent="1" vertex="1">
          <mxGeometry x="385" y="420" width="150" height="160" as="geometry" />
        </mxCell>
        <mxCell id="j2aahznA7ONagbp8tVYw-18" value="form pendaftaran" style="text;html=1;align=center;verticalAlign=middle;whiteSpace=wrap;rounded=0;" parent="1" vertex="1">
          <mxGeometry x="270" y="420" width="60" height="30" as="geometry" />
        </mxCell>
        <mxCell id="j2aahznA7ONagbp8tVYw-19" value="&lt;font style=&quot;font-size: 9px;&quot;&gt;kartu anggota yang belum divalidasi&lt;/font&gt;" style="text;html=1;align=center;verticalAlign=middle;whiteSpace=wrap;rounded=0;" parent="1" vertex="1">
          <mxGeometry x="455" y="691" width="95" height="30" as="geometry" />
        </mxCell>
        <mxCell id="j2aahznA7ONagbp8tVYw-23" value="&lt;font style=&quot;font-size: 9px;&quot;&gt;kartu anggota yang sudah divalidasi&lt;/font&gt;" style="text;html=1;align=center;verticalAlign=middle;whiteSpace=wrap;rounded=0;" parent="1" vertex="1">
          <mxGeometry x="340" y="691" width="90" height="30" as="geometry" />
        </mxCell>
        <mxCell id="j2aahznA7ONagbp8tVYw-30" value="buku yang ingin dipinjam" style="text;html=1;align=center;verticalAlign=middle;whiteSpace=wrap;rounded=0;" parent="1" vertex="1">
          <mxGeometry x="260" y="310" width="60" height="30" as="geometry" />
        </mxCell>
        <mxCell id="j2aahznA7ONagbp8tVYw-32" value="KTM" style="text;html=1;align=center;verticalAlign=middle;whiteSpace=wrap;rounded=0;" parent="1" vertex="1">
          <mxGeometry x="260" y="195" width="60" height="30" as="geometry" />
        </mxCell>
        <mxCell id="j2aahznA7ONagbp8tVYw-35" value="buku yang dipinjam" style="text;html=1;align=center;verticalAlign=middle;whiteSpace=wrap;rounded=0;" parent="1" vertex="1">
          <mxGeometry x="260" y="370" width="60" height="30" as="geometry" />
        </mxCell>
        <mxCell id="j2aahznA7ONagbp8tVYw-37" value="Buku" style="text;html=1;align=center;verticalAlign=middle;whiteSpace=wrap;rounded=0;" parent="1" vertex="1">
          <mxGeometry x="710" y="485" width="60" height="30" as="geometry" />
        </mxCell>
        <mxCell id="j2aahznA7ONagbp8tVYw-40" value="buku yang ingin dipinjam" style="text;html=1;align=center;verticalAlign=middle;whiteSpace=wrap;rounded=0;" parent="1" vertex="1">
          <mxGeometry x="580" y="360" width="60" height="30" as="geometry" />
        </mxCell>
        <mxCell id="j2aahznA7ONagbp8tVYw-42" value="buku yang dipinjam" style="text;html=1;align=center;verticalAlign=middle;whiteSpace=wrap;rounded=0;" parent="1" vertex="1">
          <mxGeometry x="570" y="470" width="60" height="30" as="geometry" />
        </mxCell>
        <mxCell id="j2aahznA7ONagbp8tVYw-53" value="denda" style="text;html=1;align=center;verticalAlign=middle;whiteSpace=wrap;rounded=0;" parent="1" vertex="1">
          <mxGeometry x="230" y="525" width="60" height="30" as="geometry" />
        </mxCell>
        <mxCell id="j2aahznA7ONagbp8tVYw-60" value="buku yang dikembalikan" style="text;html=1;align=center;verticalAlign=middle;whiteSpace=wrap;rounded=0;" parent="1" vertex="1">
          <mxGeometry x="170" y="554" width="160" height="30" as="geometry" />
        </mxCell>
        <mxCell id="j2aahznA7ONagbp8tVYw-62" value="buku yang dikembalikan" style="text;html=1;align=center;verticalAlign=middle;whiteSpace=wrap;rounded=0;" parent="1" vertex="1">
          <mxGeometry x="590" y="570" width="60" height="30" as="geometry" />
        </mxCell>
        <mxCell id="j2aahznA7ONagbp8tVYw-65" style="edgeStyle=orthogonalEdgeStyle;rounded=0;orthogonalLoop=1;jettySize=auto;html=1;entryX=1;entryY=0.5;entryDx=0;entryDy=0;exitX=0.623;exitY=0.981;exitDx=0;exitDy=0;exitPerimeter=0;" parent="1" source="j2aahznA7ONagbp8tVYw-1" edge="1">
          <mxGeometry relative="1" as="geometry">
            <mxPoint x="482" y="590" as="sourcePoint" />
            <mxPoint x="520.0000000000009" y="760" as="targetPoint" />
          </mxGeometry>
        </mxCell>
        <mxCell id="j2aahznA7ONagbp8tVYw-66" value="laporan perpustakaan" style="text;html=1;align=center;verticalAlign=middle;whiteSpace=wrap;rounded=0;" parent="1" vertex="1">
          <mxGeometry x="490" y="630" width="80" height="30" as="geometry" />
        </mxCell>
        <mxCell id="j2aahznA7ONagbp8tVYw-68" value="&lt;b&gt;&lt;font style=&quot;font-size: 50px;&quot;&gt;DIAGRAM KONTEKS&lt;/font&gt;&lt;/b&gt;" style="text;html=1;align=center;verticalAlign=middle;whiteSpace=wrap;rounded=0;" parent="1" vertex="1">
          <mxGeometry x="195" y="90" width="530" height="30" as="geometry" />
        </mxCell>
        <mxCell id="j2aahznA7ONagbp8tVYw-94" style="edgeStyle=orthogonalEdgeStyle;rounded=0;orthogonalLoop=1;jettySize=auto;html=1;exitX=0.25;exitY=0;exitDx=0;exitDy=0;entryX=0.338;entryY=0.954;entryDx=0;entryDy=0;entryPerimeter=0;" parent="1" target="j2aahznA7ONagbp8tVYw-1" edge="1">
          <mxGeometry relative="1" as="geometry">
            <mxPoint x="430.0000000000009" y="730" as="sourcePoint" />
          </mxGeometry>
        </mxCell>
        <mxCell id="j2aahznA7ONagbp8tVYw-99" value="" style="endArrow=classic;html=1;rounded=0;exitX=0.013;exitY=0.63;exitDx=0;exitDy=0;exitPerimeter=0;" parent="1" source="j2aahznA7ONagbp8tVYw-1" edge="1">
          <mxGeometry width="50" height="50" relative="1" as="geometry">
            <mxPoint x="265" y="520" as="sourcePoint" />
            <mxPoint x="220" y="523" as="targetPoint" />
          </mxGeometry>
        </mxCell>
        <mxCell id="j2aahznA7ONagbp8tVYw-100" value="&lt;font style=&quot;font-size: 9px;&quot;&gt;kartu anggota yang sudah divalidasi&lt;/font&gt;" style="text;html=1;align=center;verticalAlign=middle;whiteSpace=wrap;rounded=0;" parent="1" vertex="1">
          <mxGeometry x="260" y="495" width="90" height="30" as="geometry" />
        </mxCell>
        <mxCell id="j2aahznA7ONagbp8tVYw-241" style="edgeStyle=orthogonalEdgeStyle;rounded=0;orthogonalLoop=1;jettySize=auto;html=1;exitX=0.587;exitY=0.008;exitDx=0;exitDy=0;exitPerimeter=0;entryX=0.667;entryY=0;entryDx=0;entryDy=0;entryPerimeter=0;" parent="1" source="j2aahznA7ONagbp8tVYw-1" target="j2aahznA7ONagbp8tVYw-7" edge="1">
          <mxGeometry relative="1" as="geometry">
            <mxPoint x="180" y="450" as="targetPoint" />
            <Array as="points">
              <mxPoint x="476" y="270" />
              <mxPoint x="180" y="270" />
            </Array>
          </mxGeometry>
        </mxCell>
        <mxCell id="j2aahznA7ONagbp8tVYw-242" value="KTM" style="text;html=1;align=center;verticalAlign=middle;whiteSpace=wrap;rounded=0;" parent="1" vertex="1">
          <mxGeometry x="260" y="240" width="60" height="30" as="geometry" />
        </mxCell>
      </root>
    </mxGraphModel>
  </diagram>
</mxfile>
